# xmcd
#
# Track frame offsets:
#	150
#	14218
#	29262
#	43458
#	56284
#	70492
#	84630
#	101413
#	113071
#	129029
#	143352
#
# Disc length: 2106 seconds
#
# Revision: 1
# Processed by: cddbd v1.5.2PL0 Copyright (c) Steve Scherf et al.
# Submitted via: audiograbber 1.83.01
#
DISCID=9008380b
DTITLE=Kris Kristofferson and Rita Coolidge - The Complete Monument and Columbia Al
DTITLE=bums Collection [CD 06) - Breakaway [remastered 2016]
DYEAR=1974
DGENRE=Singer/Songwriter
TTITLE0=Lover Please
TTITLE1=We Must Have Been Out Of Our Minds
TTITLE2=Dakota (The Dancing Bear)
TTITLE3=What'cha Gonna Do
TTITLE4=The Things I Might Have Been
TTITLE5=Slow Down
TTITLE6=Rain
TTITLE7=Sweet Susannah
TTITLE8=I've Got To Have You
TTITLE9=I'd Rather Be Sorry
TTITLE10=Crippled Crow
EXTD=
EXTT0=
EXTT1=
EXTT2=
EXTT3=
EXTT4=
EXTT5=
EXTT6=
EXTT7=
EXTT8=
EXTT9=
EXTT10=
PLAYORDER=
